# MagicaVoxel @ Ephtracy

# group
o Eye

# material
mtllib untitled-5-Eye.mtl
usemtl palette

# normals
vn 0 0 -1
vn 0 0 1
vn -1 0 0
vn 1 0 0
vn 0 -1 0
vn 0 1 0

# texcoords
vt 0.970703 0.5
vt 0.974609 0.5
vt 0.978516 0.5
vt 0.982422 0.5
vt 0.986328 0.5

# verts
v 1.49012e-008 -0.1 -0.6
v 0.2 -0.1 -0.6
v 1.49012e-008 0.1 -0.6
v 0.2 0.1 -0.6
v 1.49012e-008 -0.2 -0.5
v 0.2 -0.2 -0.5
v 1.49012e-008 -0.1 -0.5
v 0.2 -0.1 -0.5
v 0.3 -0.1 -0.5
v 1.49012e-008 0.1 -0.5
v 0.2 0.1 -0.5
v 0.3 0.1 -0.5
v 1.49012e-008 0.2 -0.5
v 0.2 0.2 -0.5
v 1.49012e-008 -0.3 -0.4
v 0.2 -0.3 -0.4
v 1.49012e-008 -0.2 -0.4
v 0.2 -0.2 -0.4
v 0.3 -0.2 -0.4
v 1.49012e-008 -0.1 -0.4
v 0.1 -0.1 -0.4
v 0.2 -0.1 -0.4
v 0.3 -0.1 -0.4
v 1.49012e-008 7.45058e-009 -0.4
v 0.1 7.45058e-009 -0.4
v 1.49012e-008 0.1 -0.4
v 0.1 0.1 -0.4
v 0.2 0.1 -0.4
v 0.3 0.1 -0.4
v 1.49012e-008 0.2 -0.4
v 0.2 0.2 -0.4
v 0.3 0.2 -0.4
v 1.49012e-008 0.3 -0.4
v 0.2 0.3 -0.4
v 1.49012e-008 -0.2 -0.3
v 0.1 -0.2 -0.3
v 1.49012e-008 -0.1 -0.3
v 0.1 -0.1 -0.3
v 0.3 -0.1 -0.3
v 0.4 -0.1 -0.3
v 1.49012e-008 0.1 -0.3
v 0.1 0.1 -0.3
v 0.3 0.1 -0.3
v 0.4 0.1 -0.3
v 1.49012e-008 0.2 -0.3
v 0.1 0.2 -0.3
v 1.49012e-008 -0.4 -0.2
v 0.2 -0.4 -0.2
v 1.49012e-008 -0.3 -0.2
v 0.2 -0.3 -0.2
v 0.3 -0.3 -0.2
v 0.2 -0.2 -0.2
v 0.3 -0.2 -0.2
v 0.4 -0.2 -0.2
v -0.1 -0.1 -0.2
v 1.49012e-008 -0.1 -0.2
v 0.3 -0.1 -0.2
v 0.4 -0.1 -0.2
v -0.1 7.45058e-009 -0.2
v 1.49012e-008 7.45058e-009 -0.2
v -0.1 0.1 -0.2
v 1.49012e-008 0.1 -0.2
v 0.3 0.1 -0.2
v 0.4 0.1 -0.2
v 0.2 0.2 -0.2
v 0.3 0.2 -0.2
v 0.4 0.2 -0.2
v 1.49012e-008 0.3 -0.2
v 0.2 0.3 -0.2
v 0.3 0.3 -0.2
v 1.49012e-008 0.4 -0.2
v 0.2 0.4 -0.2
v 1.49012e-008 -0.3 -0.1
v 0.1 -0.3 -0.1
v -0.1 -0.2 -0.1
v 1.49012e-008 -0.2 -0.1
v 0.1 -0.2 -0.1
v -0.1 -0.1 -0.1
v 1.49012e-008 -0.1 -0.1
v -0.1 0.1 -0.1
v 1.49012e-008 0.1 -0.1
v -0.1 0.2 -0.1
v 1.49012e-008 0.2 -0.1
v 0.1 0.2 -0.1
v 1.49012e-008 0.3 -0.1
v 0.1 0.3 -0.1
v 1.49012e-008 -0.3 0.2
v 0.1 -0.3 0.2
v 1.49012e-008 -0.2 0.2
v 0.1 -0.2 0.2
v 1.49012e-008 0.2 0.2
v 0.1 0.2 0.2
v 1.49012e-008 0.3 0.2
v 0.1 0.3 0.2
v 1.49012e-008 -0.2 0.4
v 0.1 -0.2 0.4
v 1.49012e-008 -0.1 0.4
v 0.1 -0.1 0.4
v 1.49012e-008 0.1 0.4
v 0.1 0.1 0.4
v 1.49012e-008 0.2 0.4
v 0.1 0.2 0.4
v 1.49012e-008 -0.1 0.5
v 0.1 -0.1 0.5
v 1.49012e-008 0.1 0.5
v 0.1 0.1 0.5
v 1.49012e-008 -0.1 -0.5
v 0.1 -0.1 -0.5
v 1.49012e-008 0.1 -0.5
v 0.1 0.1 -0.5
v 1.49012e-008 -0.2 -0.4
v 0.1 -0.2 -0.4
v 1.49012e-008 -0.1 -0.4
v 0.1 -0.1 -0.4
v 1.49012e-008 0.1 -0.4
v 0.1 0.1 -0.4
v 1.49012e-008 0.2 -0.4
v 0.1 0.2 -0.4
v 1.49012e-008 -0.3 -0.2
v 0.1 -0.3 -0.2
v 1.49012e-008 -0.2 -0.2
v 0.1 -0.2 -0.2
v 1.49012e-008 0.2 -0.2
v 0.1 0.2 -0.2
v 1.49012e-008 0.3 -0.2
v 0.1 0.3 -0.2
v 1.49012e-008 -0.3 0.1
v 0.1 -0.3 0.1
v -0.1 -0.2 0.1
v 1.49012e-008 -0.2 0.1
v 0.1 -0.2 0.1
v -0.1 -0.1 0.1
v 1.49012e-008 -0.1 0.1
v -0.1 0.1 0.1
v 1.49012e-008 0.1 0.1
v -0.1 0.2 0.1
v 1.49012e-008 0.2 0.1
v 0.1 0.2 0.1
v 1.49012e-008 0.3 0.1
v 0.1 0.3 0.1
v 1.49012e-008 -0.4 0.2
v 0.2 -0.4 0.2
v 1.49012e-008 -0.3 0.2
v 0.2 -0.3 0.2
v 0.3 -0.3 0.2
v 0.2 -0.2 0.2
v 0.3 -0.2 0.2
v 0.4 -0.2 0.2
v -0.1 -0.1 0.2
v 1.49012e-008 -0.1 0.2
v 0.3 -0.1 0.2
v 0.4 -0.1 0.2
v -0.1 7.45058e-009 0.2
v 1.49012e-008 7.45058e-009 0.2
v -0.1 0.1 0.2
v 1.49012e-008 0.1 0.2
v 0.3 0.1 0.2
v 0.4 0.1 0.2
v 0.2 0.2 0.2
v 0.3 0.2 0.2
v 0.4 0.2 0.2
v 1.49012e-008 0.3 0.2
v 0.2 0.3 0.2
v 0.3 0.3 0.2
v 1.49012e-008 0.4 0.2
v 0.2 0.4 0.2
v 1.49012e-008 -0.2 0.3
v 0.1 -0.2 0.3
v 1.49012e-008 -0.1 0.3
v 0.1 -0.1 0.3
v 0.3 -0.1 0.3
v 0.4 -0.1 0.3
v 1.49012e-008 0.1 0.3
v 0.1 0.1 0.3
v 0.3 0.1 0.3
v 0.4 0.1 0.3
v 1.49012e-008 0.2 0.3
v 0.1 0.2 0.3
v 1.49012e-008 -0.3 0.4
v 0.2 -0.3 0.4
v 1.49012e-008 -0.2 0.4
v 0.2 -0.2 0.4
v 0.3 -0.2 0.4
v 1.49012e-008 -0.1 0.4
v 0.1 -0.1 0.4
v 0.2 -0.1 0.4
v 0.3 -0.1 0.4
v 1.49012e-008 7.45058e-009 0.4
v 0.1 7.45058e-009 0.4
v 1.49012e-008 0.1 0.4
v 0.1 0.1 0.4
v 0.2 0.1 0.4
v 0.3 0.1 0.4
v 1.49012e-008 0.2 0.4
v 0.2 0.2 0.4
v 0.3 0.2 0.4
v 1.49012e-008 0.3 0.4
v 0.2 0.3 0.4
v 1.49012e-008 -0.2 0.5
v 0.2 -0.2 0.5
v 1.49012e-008 -0.1 0.5
v 0.2 -0.1 0.5
v 0.3 -0.1 0.5
v 1.49012e-008 0.1 0.5
v 0.2 0.1 0.5
v 0.3 0.1 0.5
v 1.49012e-008 0.2 0.5
v 0.2 0.2 0.5
v 1.49012e-008 -0.1 0.6
v 0.2 -0.1 0.6
v 1.49012e-008 0.1 0.6
v 0.2 0.1 0.6
v -0.1 -0.1 -0.2
v -0.1 7.45058e-009 -0.2
v -0.1 0.1 -0.2
v -0.1 -0.2 -0.1
v -0.1 -0.1 -0.1
v -0.1 7.45058e-009 -0.1
v -0.1 0.1 -0.1
v -0.1 0.2 -0.1
v -0.1 -0.2 0.1
v -0.1 -0.1 0.1
v -0.1 7.45058e-009 0.1
v -0.1 0.1 0.1
v -0.1 0.2 0.1
v -0.1 -0.1 0.2
v -0.1 7.45058e-009 0.2
v -0.1 0.1 0.2
v 1.49012e-008 -0.1 -0.6
v 1.49012e-008 0.1 -0.6
v 1.49012e-008 -0.2 -0.5
v 1.49012e-008 -0.1 -0.5
v 1.49012e-008 0.1 -0.5
v 1.49012e-008 0.2 -0.5
v 1.49012e-008 -0.3 -0.4
v 1.49012e-008 -0.2 -0.4
v 1.49012e-008 -0.1 -0.4
v 1.49012e-008 7.45058e-009 -0.4
v 1.49012e-008 0.1 -0.4
v 1.49012e-008 0.2 -0.4
v 1.49012e-008 0.3 -0.4
v 1.49012e-008 -0.2 -0.3
v 1.49012e-008 -0.1 -0.3
v 1.49012e-008 7.45058e-009 -0.3
v 1.49012e-008 0.1 -0.3
v 1.49012e-008 0.2 -0.3
v 1.49012e-008 -0.4 -0.2
v 1.49012e-008 -0.3 -0.2
v 1.49012e-008 -0.2 -0.2
v 1.49012e-008 -0.1 -0.2
v 1.49012e-008 7.45058e-009 -0.2
v 1.49012e-008 0.1 -0.2
v 1.49012e-008 0.2 -0.2
v 1.49012e-008 0.3 -0.2
v 1.49012e-008 0.4 -0.2
v 1.49012e-008 -0.3 -0.1
v 1.49012e-008 -0.2 -0.1
v 1.49012e-008 -0.1 -0.1
v 1.49012e-008 0.1 -0.1
v 1.49012e-008 0.2 -0.1
v 1.49012e-008 0.3 -0.1
v 1.49012e-008 -0.3 0.1
v 1.49012e-008 -0.2 0.1
v 1.49012e-008 -0.1 0.1
v 1.49012e-008 0.1 0.1
v 1.49012e-008 0.2 0.1
v 1.49012e-008 0.3 0.1
v 1.49012e-008 -0.4 0.2
v 1.49012e-008 -0.3 0.2
v 1.49012e-008 -0.2 0.2
v 1.49012e-008 -0.1 0.2
v 1.49012e-008 7.45058e-009 0.2
v 1.49012e-008 0.1 0.2
v 1.49012e-008 0.2 0.2
v 1.49012e-008 0.3 0.2
v 1.49012e-008 0.4 0.2
v 1.49012e-008 -0.2 0.3
v 1.49012e-008 -0.1 0.3
v 1.49012e-008 7.45058e-009 0.3
v 1.49012e-008 0.1 0.3
v 1.49012e-008 0.2 0.3
v 1.49012e-008 -0.3 0.4
v 1.49012e-008 -0.2 0.4
v 1.49012e-008 -0.1 0.4
v 1.49012e-008 7.45058e-009 0.4
v 1.49012e-008 0.1 0.4
v 1.49012e-008 0.2 0.4
v 1.49012e-008 0.3 0.4
v 1.49012e-008 -0.2 0.5
v 1.49012e-008 -0.1 0.5
v 1.49012e-008 0.1 0.5
v 1.49012e-008 0.2 0.5
v 1.49012e-008 -0.1 0.6
v 1.49012e-008 0.1 0.6
v 0.1 -0.1 -0.5
v 0.1 0.1 -0.5
v 0.1 -0.2 -0.4
v 0.1 -0.1 -0.4
v 0.1 7.45058e-009 -0.4
v 0.1 0.1 -0.4
v 0.1 0.2 -0.4
v 0.1 -0.2 -0.3
v 0.1 -0.1 -0.3
v 0.1 0.1 -0.3
v 0.1 0.2 -0.3
v 0.1 -0.3 -0.2
v 0.1 -0.2 -0.2
v 0.1 0.2 -0.2
v 0.1 0.3 -0.2
v 0.1 -0.3 -0.1
v 0.1 -0.2 -0.1
v 0.1 0.2 -0.1
v 0.1 0.3 -0.1
v 0.1 -0.3 0.1
v 0.1 -0.2 0.1
v 0.1 0.2 0.1
v 0.1 0.3 0.1
v 0.1 -0.3 0.2
v 0.1 -0.2 0.2
v 0.1 0.2 0.2
v 0.1 0.3 0.2
v 0.1 -0.2 0.3
v 0.1 -0.1 0.3
v 0.1 0.1 0.3
v 0.1 0.2 0.3
v 0.1 -0.2 0.4
v 0.1 -0.1 0.4
v 0.1 7.45058e-009 0.4
v 0.1 0.1 0.4
v 0.1 0.2 0.4
v 0.1 -0.1 0.5
v 0.1 0.1 0.5
v 0.2 -0.1 -0.6
v 0.2 0.1 -0.6
v 0.2 -0.2 -0.5
v 0.2 -0.1 -0.5
v 0.2 0.1 -0.5
v 0.2 0.2 -0.5
v 0.2 -0.3 -0.4
v 0.2 -0.2 -0.4
v 0.2 -0.1 -0.4
v 0.2 0.1 -0.4
v 0.2 0.2 -0.4
v 0.2 0.3 -0.4
v 0.2 -0.4 -0.2
v 0.2 -0.3 -0.2
v 0.2 -0.2 -0.2
v 0.2 0.2 -0.2
v 0.2 0.3 -0.2
v 0.2 0.4 -0.2
v 0.2 -0.4 0.2
v 0.2 -0.3 0.2
v 0.2 -0.2 0.2
v 0.2 0.2 0.2
v 0.2 0.3 0.2
v 0.2 0.4 0.2
v 0.2 -0.3 0.4
v 0.2 -0.2 0.4
v 0.2 -0.1 0.4
v 0.2 0.1 0.4
v 0.2 0.2 0.4
v 0.2 0.3 0.4
v 0.2 -0.2 0.5
v 0.2 -0.1 0.5
v 0.2 0.1 0.5
v 0.2 0.2 0.5
v 0.2 -0.1 0.6
v 0.2 0.1 0.6
v 0.3 -0.1 -0.5
v 0.3 0.1 -0.5
v 0.3 -0.2 -0.4
v 0.3 -0.1 -0.4
v 0.3 0.1 -0.4
v 0.3 0.2 -0.4
v 0.3 -0.1 -0.3
v 0.3 0.1 -0.3
v 0.3 -0.3 -0.2
v 0.3 -0.2 -0.2
v 0.3 -0.1 -0.2
v 0.3 0.1 -0.2
v 0.3 0.2 -0.2
v 0.3 0.3 -0.2
v 0.3 -0.3 0.2
v 0.3 -0.2 0.2
v 0.3 -0.1 0.2
v 0.3 0.1 0.2
v 0.3 0.2 0.2
v 0.3 0.3 0.2
v 0.3 -0.1 0.3
v 0.3 0.1 0.3
v 0.3 -0.2 0.4
v 0.3 -0.1 0.4
v 0.3 0.1 0.4
v 0.3 0.2 0.4
v 0.3 -0.1 0.5
v 0.3 0.1 0.5
v 0.4 -0.1 -0.3
v 0.4 0.1 -0.3
v 0.4 -0.2 -0.2
v 0.4 -0.1 -0.2
v 0.4 0.1 -0.2
v 0.4 0.2 -0.2
v 0.4 -0.2 0.2
v 0.4 -0.1 0.2
v 0.4 0.1 0.2
v 0.4 0.2 0.2
v 0.4 -0.1 0.3
v 0.4 0.1 0.3
v 1.49012e-008 -0.4 -0.2
v 1.49012e-008 -0.4 0.2
v 0.2 -0.4 -0.2
v 0.2 -0.4 0.2
v 1.49012e-008 -0.3 -0.4
v 1.49012e-008 -0.3 -0.2
v 1.49012e-008 -0.3 0.2
v 1.49012e-008 -0.3 0.4
v 0.2 -0.3 -0.4
v 0.2 -0.3 -0.2
v 0.2 -0.3 0.2
v 0.2 -0.3 0.4
v 0.3 -0.3 -0.2
v 0.3 -0.3 0.2
v -0.1 -0.2 -0.1
v -0.1 -0.2 0.1
v 1.49012e-008 -0.2 -0.5
v 1.49012e-008 -0.2 -0.4
v 1.49012e-008 -0.2 -0.2
v 1.49012e-008 -0.2 -0.1
v 1.49012e-008 -0.2 0.1
v 1.49012e-008 -0.2 0.2
v 1.49012e-008 -0.2 0.4
v 1.49012e-008 -0.2 0.5
v 0.1 -0.2 -0.2
v 0.1 -0.2 -0.1
v 0.1 -0.2 0.1
v 0.1 -0.2 0.2
v 0.2 -0.2 -0.5
v 0.2 -0.2 -0.4
v 0.2 -0.2 -0.2
v 0.2 -0.2 0.2
v 0.2 -0.2 0.4
v 0.2 -0.2 0.5
v 0.3 -0.2 -0.4
v 0.3 -0.2 -0.2
v 0.3 -0.2 0.2
v 0.3 -0.2 0.4
v 0.4 -0.2 -0.2
v 0.4 -0.2 0.2
v -0.1 -0.1 -0.2
v -0.1 -0.1 -0.1
v -0.1 -0.1 0.1
v -0.1 -0.1 0.2
v 1.49012e-008 -0.1 -0.6
v 1.49012e-008 -0.1 -0.5
v 1.49012e-008 -0.1 -0.4
v 1.49012e-008 -0.1 -0.3
v 1.49012e-008 -0.1 -0.2
v 1.49012e-008 -0.1 -0.1
v 1.49012e-008 -0.1 0.1
v 1.49012e-008 -0.1 0.2
v 1.49012e-008 -0.1 0.3
v 1.49012e-008 -0.1 0.4
v 1.49012e-008 -0.1 0.5
v 1.49012e-008 -0.1 0.6
v 0.1 -0.1 -0.4
v 0.1 -0.1 -0.3
v 0.1 -0.1 0.3
v 0.1 -0.1 0.4
v 0.2 -0.1 -0.6
v 0.2 -0.1 -0.5
v 0.2 -0.1 -0.4
v 0.2 -0.1 0.4
v 0.2 -0.1 0.5
v 0.2 -0.1 0.6
v 0.3 -0.1 -0.5
v 0.3 -0.1 -0.4
v 0.3 -0.1 -0.3
v 0.3 -0.1 -0.2
v 0.3 -0.1 0.2
v 0.3 -0.1 0.3
v 0.3 -0.1 0.4
v 0.3 -0.1 0.5
v 0.4 -0.1 -0.3
v 0.4 -0.1 -0.2
v 0.4 -0.1 0.2
v 0.4 -0.1 0.3
v 1.49012e-008 0.1 -0.5
v 1.49012e-008 0.1 -0.4
v 1.49012e-008 0.1 0.4
v 1.49012e-008 0.1 0.5
v 0.1 0.1 -0.5
v 0.1 0.1 -0.4
v 0.1 0.1 0.4
v 0.1 0.1 0.5
v 1.49012e-008 0.2 -0.4
v 1.49012e-008 0.2 -0.3
v 1.49012e-008 0.2 0.3
v 1.49012e-008 0.2 0.4
v 0.1 0.2 -0.4
v 0.1 0.2 -0.3
v 0.1 0.2 0.3
v 0.1 0.2 0.4
v 1.49012e-008 0.3 -0.2
v 1.49012e-008 0.3 -0.1
v 1.49012e-008 0.3 0.1
v 1.49012e-008 0.3 0.2
v 0.1 0.3 -0.2
v 0.1 0.3 -0.1
v 0.1 0.3 0.1
v 0.1 0.3 0.2
v 1.49012e-008 -0.3 -0.2
v 1.49012e-008 -0.3 -0.1
v 1.49012e-008 -0.3 0.1
v 1.49012e-008 -0.3 0.2
v 0.1 -0.3 -0.2
v 0.1 -0.3 -0.1
v 0.1 -0.3 0.1
v 0.1 -0.3 0.2
v 1.49012e-008 -0.2 -0.4
v 1.49012e-008 -0.2 -0.3
v 1.49012e-008 -0.2 0.3
v 1.49012e-008 -0.2 0.4
v 0.1 -0.2 -0.4
v 0.1 -0.2 -0.3
v 0.1 -0.2 0.3
v 0.1 -0.2 0.4
v 1.49012e-008 -0.1 -0.5
v 1.49012e-008 -0.1 -0.4
v 1.49012e-008 -0.1 0.4
v 1.49012e-008 -0.1 0.5
v 0.1 -0.1 -0.5
v 0.1 -0.1 -0.4
v 0.1 -0.1 0.4
v 0.1 -0.1 0.5
v -0.1 0.1 -0.2
v -0.1 0.1 -0.1
v -0.1 0.1 0.1
v -0.1 0.1 0.2
v 1.49012e-008 0.1 -0.6
v 1.49012e-008 0.1 -0.5
v 1.49012e-008 0.1 -0.4
v 1.49012e-008 0.1 -0.3
v 1.49012e-008 0.1 -0.2
v 1.49012e-008 0.1 -0.1
v 1.49012e-008 0.1 0.1
v 1.49012e-008 0.1 0.2
v 1.49012e-008 0.1 0.3
v 1.49012e-008 0.1 0.4
v 1.49012e-008 0.1 0.5
v 1.49012e-008 0.1 0.6
v 0.1 0.1 -0.4
v 0.1 0.1 -0.3
v 0.1 0.1 0.3
v 0.1 0.1 0.4
v 0.2 0.1 -0.6
v 0.2 0.1 -0.5
v 0.2 0.1 -0.4
v 0.2 0.1 0.4
v 0.2 0.1 0.5
v 0.2 0.1 0.6
v 0.3 0.1 -0.5
v 0.3 0.1 -0.4
v 0.3 0.1 -0.3
v 0.3 0.1 -0.2
v 0.3 0.1 0.2
v 0.3 0.1 0.3
v 0.3 0.1 0.4
v 0.3 0.1 0.5
v 0.4 0.1 -0.3
v 0.4 0.1 -0.2
v 0.4 0.1 0.2
v 0.4 0.1 0.3
v -0.1 0.2 -0.1
v -0.1 0.2 0.1
v 1.49012e-008 0.2 -0.5
v 1.49012e-008 0.2 -0.4
v 1.49012e-008 0.2 -0.2
v 1.49012e-008 0.2 -0.1
v 1.49012e-008 0.2 0.1
v 1.49012e-008 0.2 0.2
v 1.49012e-008 0.2 0.4
v 1.49012e-008 0.2 0.5
v 0.1 0.2 -0.2
v 0.1 0.2 -0.1
v 0.1 0.2 0.1
v 0.1 0.2 0.2
v 0.2 0.2 -0.5
v 0.2 0.2 -0.4
v 0.2 0.2 -0.2
v 0.2 0.2 0.2
v 0.2 0.2 0.4
v 0.2 0.2 0.5
v 0.3 0.2 -0.4
v 0.3 0.2 -0.2
v 0.3 0.2 0.2
v 0.3 0.2 0.4
v 0.4 0.2 -0.2
v 0.4 0.2 0.2
v 1.49012e-008 0.3 -0.4
v 1.49012e-008 0.3 -0.2
v 1.49012e-008 0.3 0.2
v 1.49012e-008 0.3 0.4
v 0.2 0.3 -0.4
v 0.2 0.3 -0.2
v 0.2 0.3 0.2
v 0.2 0.3 0.4
v 0.3 0.3 -0.2
v 0.3 0.3 0.2
v 1.49012e-008 0.4 -0.2
v 1.49012e-008 0.4 0.2
v 0.2 0.4 -0.2
v 0.2 0.4 0.2

# faces
f 3/1/1 2/1/1 1/1/1
f 4/1/1 2/1/1 3/1/1
f 7/1/1 6/1/1 5/1/1
f 8/1/1 6/1/1 7/1/1
f 11/1/1 9/1/1 8/1/1
f 12/1/1 9/1/1 11/1/1
f 13/1/1 11/1/1 10/1/1
f 14/1/1 11/1/1 13/1/1
f 17/1/1 16/1/1 15/1/1
f 18/1/1 16/1/1 17/1/1
f 22/1/1 19/1/1 18/1/1
f 23/1/1 19/1/1 22/1/1
f 24/2/1 21/2/1 20/2/1
f 25/2/1 21/2/1 24/2/1
f 26/5/1 25/5/1 24/5/1
f 27/5/1 25/5/1 26/5/1
f 31/1/1 29/1/1 28/1/1
f 32/1/1 29/1/1 31/1/1
f 33/1/1 31/1/1 30/1/1
f 34/1/1 31/1/1 33/1/1
f 37/2/1 36/2/1 35/2/1
f 38/2/1 36/2/1 37/2/1
f 43/1/1 40/1/1 39/1/1
f 44/1/1 40/1/1 43/1/1
f 45/5/1 42/5/1 41/5/1
f 46/5/1 42/5/1 45/5/1
f 49/1/1 48/1/1 47/1/1
f 50/1/1 48/1/1 49/1/1
f 52/1/1 51/1/1 50/1/1
f 53/1/1 51/1/1 52/1/1
f 57/1/1 54/1/1 53/1/1
f 58/1/1 54/1/1 57/1/1
f 59/3/1 56/3/1 55/3/1
f 60/3/1 56/3/1 59/3/1
f 61/4/1 60/4/1 59/4/1
f 62/4/1 60/4/1 61/4/1
f 66/1/1 64/1/1 63/1/1
f 67/1/1 64/1/1 66/1/1
f 69/1/1 66/1/1 65/1/1
f 70/1/1 66/1/1 69/1/1
f 71/1/1 69/1/1 68/1/1
f 72/1/1 69/1/1 71/1/1
f 76/2/1 74/2/1 73/2/1
f 77/2/1 74/2/1 76/2/1
f 78/3/1 76/3/1 75/3/1
f 79/3/1 76/3/1 78/3/1
f 82/4/1 81/4/1 80/4/1
f 83/4/1 81/4/1 82/4/1
f 85/5/1 84/5/1 83/5/1
f 86/5/1 84/5/1 85/5/1
f 89/1/1 88/1/1 87/1/1
f 90/1/1 88/1/1 89/1/1
f 93/1/1 92/1/1 91/1/1
f 94/1/1 92/1/1 93/1/1
f 97/1/1 96/1/1 95/1/1
f 98/1/1 96/1/1 97/1/1
f 101/1/1 100/1/1 99/1/1
f 102/1/1 100/1/1 101/1/1
f 105/1/1 104/1/1 103/1/1
f 106/1/1 104/1/1 105/1/1
f 107/1/2 108/1/2 109/1/2
f 109/1/2 108/1/2 110/1/2
f 111/1/2 112/1/2 113/1/2
f 113/1/2 112/1/2 114/1/2
f 115/1/2 116/1/2 117/1/2
f 117/1/2 116/1/2 118/1/2
f 119/1/2 120/1/2 121/1/2
f 121/1/2 120/1/2 122/1/2
f 123/1/2 124/1/2 125/1/2
f 125/1/2 124/1/2 126/1/2
f 127/2/2 128/2/2 130/2/2
f 130/2/2 128/2/2 131/2/2
f 129/3/2 130/3/2 132/3/2
f 132/3/2 130/3/2 133/3/2
f 134/4/2 135/4/2 136/4/2
f 136/4/2 135/4/2 137/4/2
f 137/5/2 138/5/2 139/5/2
f 139/5/2 138/5/2 140/5/2
f 141/1/2 142/1/2 143/1/2
f 143/1/2 142/1/2 144/1/2
f 144/1/2 145/1/2 146/1/2
f 146/1/2 145/1/2 147/1/2
f 147/1/2 148/1/2 151/1/2
f 151/1/2 148/1/2 152/1/2
f 149/3/2 150/3/2 153/3/2
f 153/3/2 150/3/2 154/3/2
f 153/4/2 154/4/2 155/4/2
f 155/4/2 154/4/2 156/4/2
f 157/1/2 158/1/2 160/1/2
f 160/1/2 158/1/2 161/1/2
f 159/1/2 160/1/2 163/1/2
f 163/1/2 160/1/2 164/1/2
f 162/1/2 163/1/2 165/1/2
f 165/1/2 163/1/2 166/1/2
f 167/2/2 168/2/2 169/2/2
f 169/2/2 168/2/2 170/2/2
f 171/1/2 172/1/2 175/1/2
f 175/1/2 172/1/2 176/1/2
f 173/5/2 174/5/2 177/5/2
f 177/5/2 174/5/2 178/5/2
f 179/1/2 180/1/2 181/1/2
f 181/1/2 180/1/2 182/1/2
f 182/1/2 183/1/2 186/1/2
f 186/1/2 183/1/2 187/1/2
f 184/2/2 185/2/2 188/2/2
f 188/2/2 185/2/2 189/2/2
f 188/5/2 189/5/2 190/5/2
f 190/5/2 189/5/2 191/5/2
f 192/1/2 193/1/2 195/1/2
f 195/1/2 193/1/2 196/1/2
f 194/1/2 195/1/2 197/1/2
f 197/1/2 195/1/2 198/1/2
f 199/1/2 200/1/2 201/1/2
f 201/1/2 200/1/2 202/1/2
f 202/1/2 203/1/2 205/1/2
f 205/1/2 203/1/2 206/1/2
f 204/1/2 205/1/2 207/1/2
f 207/1/2 205/1/2 208/1/2
f 209/1/2 210/1/2 211/1/2
f 211/1/2 210/1/2 212/1/2
f 217/3/3 214/3/3 213/3/3
f 218/4/3 215/4/3 214/4/3
f 218/3/3 214/3/3 217/3/3
f 219/4/3 215/4/3 218/4/3
f 221/3/3 217/3/3 216/3/3
f 222/1/3 218/1/3 217/1/3
f 222/3/3 217/3/3 221/3/3
f 222/1/3 219/1/3 218/1/3
f 223/1/3 219/1/3 222/1/3
f 224/4/3 220/4/3 219/4/3
f 224/1/3 219/1/3 223/1/3
f 225/4/3 220/4/3 224/4/3
f 226/3/3 223/3/3 222/3/3
f 227/4/3 224/4/3 223/4/3
f 227/3/3 223/3/3 226/3/3
f 228/4/3 224/4/3 227/4/3
f 232/1/3 230/1/3 229/1/3
f 233/1/3 230/1/3 232/1/3
f 236/1/3 232/1/3 231/1/3
f 237/1/3 232/1/3 236/1/3
f 239/1/3 234/1/3 233/1/3
f 240/1/3 234/1/3 239/1/3
f 242/1/3 236/1/3 235/1/3
f 243/2/3 238/2/3 237/2/3
f 244/5/3 239/5/3 238/5/3
f 244/2/3 238/2/3 243/2/3
f 245/5/3 239/5/3 244/5/3
f 246/1/3 241/1/3 240/1/3
f 248/1/3 242/1/3 235/1/3
f 249/2/3 245/2/3 244/2/3
f 249/2/3 243/2/3 242/2/3
f 249/1/3 242/1/3 248/1/3
f 249/2/3 244/2/3 243/2/3
f 250/2/3 245/2/3 249/2/3
f 251/2/3 245/2/3 250/2/3
f 252/5/3 246/5/3 245/5/3
f 252/2/3 245/2/3 251/2/3
f 253/1/3 241/1/3 246/1/3
f 253/5/3 246/5/3 252/5/3
f 254/1/3 241/1/3 253/1/3
f 256/1/3 248/1/3 247/1/3
f 257/2/3 250/2/3 249/2/3
f 258/2/3 250/2/3 257/2/3
f 259/5/3 253/5/3 252/5/3
f 260/5/3 253/5/3 259/5/3
f 261/1/3 255/1/3 254/1/3
f 262/1/3 256/1/3 247/1/3
f 262/2/3 257/2/3 256/2/3
f 263/2/3 257/2/3 262/2/3
f 266/5/3 261/5/3 260/5/3
f 267/1/3 255/1/3 261/1/3
f 267/5/3 261/5/3 266/5/3
f 268/1/3 262/1/3 247/1/3
f 269/1/3 262/1/3 268/1/3
f 270/2/3 264/2/3 263/2/3
f 271/2/3 264/2/3 270/2/3
f 273/5/3 266/5/3 265/5/3
f 274/5/3 266/5/3 273/5/3
f 275/1/3 255/1/3 267/1/3
f 276/1/3 255/1/3 275/1/3
f 277/2/3 272/2/3 271/2/3
f 277/1/3 270/1/3 269/1/3
f 277/2/3 271/2/3 270/2/3
f 277/2/3 273/2/3 272/2/3
f 278/2/3 273/2/3 277/2/3
f 279/2/3 273/2/3 278/2/3
f 280/5/3 274/5/3 273/5/3
f 280/2/3 273/2/3 279/2/3
f 281/1/3 275/1/3 274/1/3
f 281/5/3 274/5/3 280/5/3
f 282/1/3 277/1/3 269/1/3
f 283/1/3 277/1/3 282/1/3
f 284/2/3 279/2/3 278/2/3
f 285/5/3 280/5/3 279/5/3
f 285/2/3 279/2/3 284/2/3
f 286/5/3 280/5/3 285/5/3
f 287/1/3 275/1/3 281/1/3
f 288/1/3 275/1/3 287/1/3
f 289/1/3 284/1/3 283/1/3
f 290/1/3 284/1/3 289/1/3
f 291/1/3 287/1/3 286/1/3
f 292/1/3 287/1/3 291/1/3
f 293/1/3 291/1/3 290/1/3
f 294/1/3 291/1/3 293/1/3
f 298/5/3 296/5/3 295/5/3
f 299/5/3 296/5/3 298/5/3
f 300/5/3 296/5/3 299/5/3
f 302/5/3 298/5/3 297/5/3
f 303/5/3 298/5/3 302/5/3
f 304/5/3 301/5/3 300/5/3
f 305/5/3 301/5/3 304/5/3
f 310/5/3 307/5/3 306/5/3
f 311/5/3 307/5/3 310/5/3
f 312/5/3 309/5/3 308/5/3
f 313/5/3 309/5/3 312/5/3
f 318/5/3 315/5/3 314/5/3
f 319/5/3 315/5/3 318/5/3
f 320/5/3 317/5/3 316/5/3
f 321/5/3 317/5/3 320/5/3
f 326/5/3 323/5/3 322/5/3
f 327/5/3 323/5/3 326/5/3
f 329/5/3 325/5/3 324/5/3
f 330/5/3 325/5/3 329/5/3
f 331/5/3 328/5/3 327/5/3
f 331/5/3 329/5/3 328/5/3
f 332/5/3 329/5/3 331/5/3
f 333/1/4 334/1/4 336/1/4
f 336/1/4 334/1/4 337/1/4
f 335/1/4 336/1/4 340/1/4
f 340/1/4 336/1/4 341/1/4
f 337/1/4 338/1/4 342/1/4
f 342/1/4 338/1/4 343/1/4
f 339/1/4 340/1/4 346/1/4
f 346/1/4 340/1/4 347/1/4
f 343/1/4 344/1/4 348/1/4
f 348/1/4 344/1/4 349/1/4
f 345/1/4 346/1/4 351/1/4
f 351/1/4 346/1/4 352/1/4
f 349/1/4 350/1/4 355/1/4
f 355/1/4 350/1/4 356/1/4
f 352/1/4 353/1/4 357/1/4
f 357/1/4 353/1/4 358/1/4
f 354/1/4 355/1/4 361/1/4
f 361/1/4 355/1/4 362/1/4
f 358/1/4 359/1/4 363/1/4
f 363/1/4 359/1/4 364/1/4
f 360/1/4 361/1/4 365/1/4
f 365/1/4 361/1/4 366/1/4
f 364/1/4 365/1/4 367/1/4
f 367/1/4 365/1/4 368/1/4
f 369/1/4 370/1/4 372/1/4
f 372/1/4 370/1/4 373/1/4
f 371/1/4 372/1/4 375/1/4
f 373/1/4 374/1/4 375/1/4
f 372/1/4 373/1/4 375/1/4
f 375/1/4 374/1/4 376/1/4
f 371/1/4 375/1/4 378/1/4
f 378/1/4 375/1/4 379/1/4
f 376/1/4 374/1/4 380/1/4
f 380/1/4 374/1/4 381/1/4
f 377/1/4 378/1/4 383/1/4
f 383/1/4 378/1/4 384/1/4
f 381/1/4 382/1/4 387/1/4
f 387/1/4 382/1/4 388/1/4
f 384/1/4 385/1/4 389/1/4
f 386/1/4 387/1/4 390/1/4
f 384/1/4 389/1/4 391/1/4
f 389/1/4 390/1/4 391/1/4
f 391/1/4 390/1/4 392/1/4
f 390/1/4 387/1/4 393/1/4
f 392/1/4 390/1/4 393/1/4
f 393/1/4 387/1/4 394/1/4
f 392/1/4 393/1/4 395/1/4
f 395/1/4 393/1/4 396/1/4
f 397/1/4 398/1/4 400/1/4
f 400/1/4 398/1/4 401/1/4
f 399/1/4 400/1/4 403/1/4
f 401/1/4 402/1/4 403/1/4
f 400/1/4 401/1/4 403/1/4
f 403/1/4 402/1/4 404/1/4
f 404/1/4 402/1/4 405/1/4
f 405/1/4 402/1/4 406/1/4
f 404/1/4 405/1/4 407/1/4
f 407/1/4 405/1/4 408/1/4
f 411/1/5 410/1/5 409/1/5
f 412/1/5 410/1/5 411/1/5
f 417/1/5 414/1/5 413/1/5
f 418/1/5 414/1/5 417/1/5
f 419/1/5 416/1/5 415/1/5
f 420/1/5 416/1/5 419/1/5
f 421/1/5 419/1/5 418/1/5
f 422/1/5 419/1/5 421/1/5
f 428/3/5 424/3/5 423/3/5
f 429/3/5 424/3/5 428/3/5
f 433/2/5 428/2/5 427/2/5
f 434/2/5 428/2/5 433/2/5
f 435/2/5 430/2/5 429/2/5
f 436/2/5 430/2/5 435/2/5
f 437/1/5 426/1/5 425/1/5
f 438/1/5 426/1/5 437/1/5
f 441/1/5 432/1/5 431/1/5
f 442/1/5 432/1/5 441/1/5
f 443/1/5 439/1/5 438/1/5
f 444/1/5 439/1/5 443/1/5
f 445/1/5 441/1/5 440/1/5
f 446/1/5 441/1/5 445/1/5
f 447/1/5 445/1/5 444/1/5
f 448/1/5 445/1/5 447/1/5
f 457/3/5 450/3/5 449/3/5
f 458/3/5 450/3/5 457/3/5
f 459/3/5 452/3/5 451/3/5
f 460/3/5 452/3/5 459/3/5
f 465/2/5 456/2/5 455/2/5
f 466/2/5 456/2/5 465/2/5
f 467/2/5 462/2/5 461/2/5
f 468/2/5 462/2/5 467/2/5
f 469/1/5 454/1/5 453/1/5
f 470/1/5 454/1/5 469/1/5
f 473/1/5 464/1/5 463/1/5
f 474/1/5 464/1/5 473/1/5
f 475/1/5 471/1/5 470/1/5
f 476/1/5 471/1/5 475/1/5
f 481/1/5 473/1/5 472/1/5
f 482/1/5 473/1/5 481/1/5
f 483/1/5 478/1/5 477/1/5
f 484/1/5 478/1/5 483/1/5
f 485/1/5 480/1/5 479/1/5
f 486/1/5 480/1/5 485/1/5
f 491/1/5 488/1/5 487/1/5
f 492/1/5 488/1/5 491/1/5
f 493/1/5 490/1/5 489/1/5
f 494/1/5 490/1/5 493/1/5
f 499/1/5 496/1/5 495/1/5
f 500/1/5 496/1/5 499/1/5
f 501/1/5 498/1/5 497/1/5
f 502/1/5 498/1/5 501/1/5
f 507/1/5 504/1/5 503/1/5
f 508/1/5 504/1/5 507/1/5
f 509/1/5 506/1/5 505/1/5
f 510/1/5 506/1/5 509/1/5
f 511/1/6 512/1/6 515/1/6
f 515/1/6 512/1/6 516/1/6
f 513/1/6 514/1/6 517/1/6
f 517/1/6 514/1/6 518/1/6
f 519/1/6 520/1/6 523/1/6
f 523/1/6 520/1/6 524/1/6
f 521/1/6 522/1/6 525/1/6
f 525/1/6 522/1/6 526/1/6
f 527/1/6 528/1/6 531/1/6
f 531/1/6 528/1/6 532/1/6
f 529/1/6 530/1/6 533/1/6
f 533/1/6 530/1/6 534/1/6
f 535/4/6 536/4/6 543/4/6
f 543/4/6 536/4/6 544/4/6
f 537/4/6 538/4/6 545/4/6
f 545/4/6 538/4/6 546/4/6
f 541/5/6 542/5/6 551/5/6
f 551/5/6 542/5/6 552/5/6
f 547/5/6 548/5/6 553/5/6
f 553/5/6 548/5/6 554/5/6
f 539/1/6 540/1/6 555/1/6
f 555/1/6 540/1/6 556/1/6
f 549/1/6 550/1/6 559/1/6
f 559/1/6 550/1/6 560/1/6
f 556/1/6 557/1/6 561/1/6
f 561/1/6 557/1/6 562/1/6
f 558/1/6 559/1/6 567/1/6
f 567/1/6 559/1/6 568/1/6
f 563/1/6 564/1/6 569/1/6
f 569/1/6 564/1/6 570/1/6
f 565/1/6 566/1/6 571/1/6
f 571/1/6 566/1/6 572/1/6
f 573/4/6 574/4/6 578/4/6
f 578/4/6 574/4/6 579/4/6
f 577/5/6 578/5/6 583/5/6
f 583/5/6 578/5/6 584/5/6
f 579/5/6 580/5/6 585/5/6
f 585/5/6 580/5/6 586/5/6
f 575/1/6 576/1/6 587/1/6
f 587/1/6 576/1/6 588/1/6
f 581/1/6 582/1/6 591/1/6
f 591/1/6 582/1/6 592/1/6
f 588/1/6 589/1/6 593/1/6
f 593/1/6 589/1/6 594/1/6
f 590/1/6 591/1/6 595/1/6
f 595/1/6 591/1/6 596/1/6
f 594/1/6 595/1/6 597/1/6
f 597/1/6 595/1/6 598/1/6
f 599/1/6 600/1/6 603/1/6
f 603/1/6 600/1/6 604/1/6
f 601/1/6 602/1/6 605/1/6
f 605/1/6 602/1/6 606/1/6
f 604/1/6 605/1/6 607/1/6
f 607/1/6 605/1/6 608/1/6
f 609/1/6 610/1/6 611/1/6
f 611/1/6 610/1/6 612/1/6
