# MagicaVoxel @ Ephtracy

# group
o SmallDemon2

# material
mtllib TowerDefense-0-SmallDemon2.mtl
usemtl palette

# normals
vn 1 0 0
vn -1 0 0
vn 0 0 -1
vn 0 0 1
vn 0 -1 0
vn 0 1 0

# texcoords
vt 0.908203 0.5
vt 0.912109 0.5
vt 0.916016 0.5
vt 0.943359 0.5
vt 0.947266 0.5
vt 0.951172 0.5
vt 0.990234 0.5

# verts
v 0.3 -0.2 -0.1
v 0.3 -0.2 0.1
v 0.3 -0.1 -0.2
v 0.3 -0.1 -0.1
v 0.3 -0.1 0.1
v 0.3 -0.1 0.2
v 0.3 0.1 -0.2
v 0.3 0.1 -0.1
v 0.3 0.1 0.1
v 0.3 0.1 0.2
v 0.3 0.2 -0.1
v 0.3 0.2 0.1
v 0.2 -0.3 -0.2
v 0.2 -0.3 0.2
v 0.2 -0.2 -0.3
v 0.2 -0.2 -0.2
v 0.2 -0.2 -0.1
v 0.2 -0.2 0.1
v 0.2 -0.2 0.2
v 0.2 -0.2 0.3
v 0.2 -0.1 -0.2
v 0.2 -0.1 -0.1
v 0.2 -0.1 0.1
v 0.2 -0.1 0.2
v 0.2 0.1 -0.2
v 0.2 0.1 -0.1
v 0.2 0.1 0.1
v 0.2 0.1 0.2
v 0.2 0.2 -0.3
v 0.2 0.2 -0.2
v 0.2 0.2 -0.1
v 0.2 0.2 0.1
v 0.2 0.2 0.2
v 0.2 0.2 0.3
v 0.2 0.3 -0.2
v 0.2 0.3 0.2
v 0.1 -0.4 -0.1
v 0.1 -0.4 0.1
v 0.1 -0.3 -0.3
v 0.1 -0.3 -0.2
v 0.1 -0.3 -0.1
v 0.1 -0.3 0.1
v 0.1 -0.3 0.2
v 0.1 -0.3 0.3
v 0.1 -0.2 -0.3
v 0.1 -0.2 -0.2
v 0.1 -0.2 0.2
v 0.1 -0.2 0.3
v 0.1 -0.1 -0.4
v 0.1 -0.1 -0.3
v 0.1 -0.1 0.3
v 0.1 -0.1 0.4
v 0.1 0.1 -0.4
v 0.1 0.1 -0.3
v 0.1 0.1 0.3
v 0.1 0.1 0.4
v 0.1 0.2 -0.3
v 0.1 0.2 -0.2
v 0.1 0.2 0.2
v 0.1 0.2 0.3
v 0.1 0.3 -0.3
v 0.1 0.3 -0.2
v 0.1 0.3 -0.1
v 0.1 0.3 0.1
v 0.1 0.3 0.2
v 0.1 0.3 0.3
v 0.1 0.4 -0.1
v 0.1 0.4 0.1
v 0 -0.4 -0.2
v 0 -0.4 -0.1
v 0 -0.4 0.1
v 0 -0.4 0.2
v 0 -0.3 -0.2
v 0 -0.3 -0.1
v 0 -0.3 0.1
v 0 -0.3 0.2
v 0 -0.2 -0.4
v 0 -0.2 -0.3
v 0 -0.2 0.3
v 0 -0.2 0.4
v 0 -0.1 -0.4
v 0 -0.1 -0.3
v 0 -0.1 0.3
v 0 -0.1 0.4
v 0 0.1 -0.4
v 0 0.1 -0.3
v 0 0.1 0.3
v 0 0.1 0.4
v 0 0.2 -0.4
v 0 0.2 -0.3
v 0 0.2 0.3
v 0 0.2 0.4
v 0 0.3 -0.2
v 0 0.3 -0.1
v 0 0.3 0.1
v 0 0.3 0.2
v 0 0.4 -0.2
v 0 0.4 -0.1
v 0 0.4 0.1
v 0 0.4 0.2
v -0.2 0.3 -0.4
v -0.2 0.3 -0.3
v -0.2 0.3 -0.2
v -0.2 0.3 0.2
v -0.2 0.3 0.3
v -0.2 0.3 0.4
v -0.2 0.4 -0.4
v -0.2 0.4 -0.2
v -0.2 0.4 0.2
v -0.2 0.4 0.4
v -0.2 -0.4 -0.2
v -0.2 -0.4 -0.1
v -0.2 -0.4 0.1
v -0.2 -0.4 0.2
v -0.2 -0.3 -0.2
v -0.2 -0.3 -0.1
v -0.2 -0.3 0.1
v -0.2 -0.3 0.2
v -0.2 -0.2 -0.4
v -0.2 -0.2 -0.3
v -0.2 -0.2 0.3
v -0.2 -0.2 0.4
v -0.2 -0.1 -0.4
v -0.2 -0.1 -0.3
v -0.2 -0.1 0.3
v -0.2 -0.1 0.4
v -0.2 0.1 -0.4
v -0.2 0.1 -0.3
v -0.2 0.1 0.3
v -0.2 0.1 0.4
v -0.2 0.2 -0.4
v -0.2 0.2 -0.3
v -0.2 0.2 0.3
v -0.2 0.2 0.4
v -0.2 0.3 -0.2
v -0.2 0.3 -0.1
v -0.2 0.3 0.1
v -0.2 0.3 0.2
v -0.2 0.4 -0.2
v -0.2 0.4 -0.1
v -0.2 0.4 0.1
v -0.2 0.4 0.2
v -0.3 -0.4 -0.1
v -0.3 -0.4 0.1
v -0.3 -0.3 -0.3
v -0.3 -0.3 -0.2
v -0.3 -0.3 -0.1
v -0.3 -0.3 0.1
v -0.3 -0.3 0.2
v -0.3 -0.3 0.3
v -0.3 -0.2 -0.3
v -0.3 -0.2 -0.2
v -0.3 -0.2 0.2
v -0.3 -0.2 0.3
v -0.3 -0.1 -0.4
v -0.3 -0.1 -0.3
v -0.3 -0.1 0.3
v -0.3 -0.1 0.4
v -0.3 0.1 -0.4
v -0.3 0.1 -0.3
v -0.3 0.1 0.3
v -0.3 0.1 0.4
v -0.3 0.2 -0.3
v -0.3 0.2 -0.2
v -0.3 0.2 0.2
v -0.3 0.2 0.3
v -0.3 0.3 -0.3
v -0.3 0.3 -0.2
v -0.3 0.3 -0.1
v -0.3 0.3 0.1
v -0.3 0.3 0.2
v -0.3 0.3 0.3
v -0.3 0.4 -0.3
v -0.3 0.4 -0.2
v -0.3 0.4 -0.1
v -0.3 0.4 0.1
v -0.3 0.4 0.2
v -0.3 0.4 0.3
v -0.4 -0.3 -0.2
v -0.4 -0.3 0.2
v -0.4 -0.2 -0.3
v -0.4 -0.2 -0.2
v -0.4 -0.2 -0.1
v -0.4 -0.2 0.1
v -0.4 -0.2 0.2
v -0.4 -0.2 0.3
v -0.4 -0.1 -0.2
v -0.4 -0.1 0.2
v -0.4 7.45058e-009 -0.2
v -0.4 7.45058e-009 0.2
v -0.4 0.1 -0.3
v -0.4 0.1 -0.2
v -0.4 0.1 -0.1
v -0.4 0.1 0.1
v -0.4 0.1 0.2
v -0.4 0.1 0.3
v -0.4 0.2 -0.2
v -0.4 0.2 -0.1
v -0.4 0.2 0.1
v -0.4 0.2 0.2
v -0.4 0.3 -0.4
v -0.4 0.3 -0.3
v -0.4 0.3 -0.2
v -0.4 0.3 0.2
v -0.4 0.3 0.3
v -0.4 0.3 0.4
v -0.4 0.4 -0.4
v -0.4 0.4 -0.3
v -0.4 0.4 0.3
v -0.4 0.4 0.4
v -0.5 -0.2 -0.2
v -0.5 -0.2 -0.1
v -0.5 -0.2 0.1
v -0.5 -0.2 0.2
v -0.5 -0.1 -0.2
v -0.5 -0.1 -0.1
v -0.5 -0.1 0.1
v -0.5 -0.1 0.2
v -0.5 7.45058e-009 -0.2
v -0.5 7.45058e-009 -0.1
v -0.5 7.45058e-009 0.1
v -0.5 7.45058e-009 0.2
v -0.5 0.1 -0.3
v -0.5 0.1 -0.2
v -0.5 0.1 -0.1
v -0.5 0.1 0.1
v -0.5 0.1 0.2
v -0.5 0.1 0.3
v -0.5 0.2 -0.3
v -0.5 0.2 -0.2
v -0.5 0.2 -0.1
v -0.5 0.2 0.1
v -0.5 0.2 0.2
v -0.5 0.2 0.3
v 0.1 -0.1 -0.4
v 0.1 0.1 -0.4
v 0 -0.2 -0.4
v 0 -0.1 -0.4
v 0 0.1 -0.4
v 0 0.2 -0.4
v -0.2 -0.2 -0.4
v -0.2 -0.1 -0.4
v -0.2 0.1 -0.4
v -0.2 0.2 -0.4
v -0.2 0.3 -0.4
v -0.2 0.4 -0.4
v -0.3 -0.1 -0.4
v -0.3 0.1 -0.4
v -0.3 0.3 -0.4
v -0.3 0.4 -0.4
v -0.4 0.3 -0.4
v -0.4 0.4 -0.4
v 0.2 -0.2 -0.3
v 0.2 0.2 -0.3
v 0.1 -0.3 -0.3
v 0.1 -0.2 -0.3
v 0.1 -0.1 -0.3
v 0.1 0.1 -0.3
v 0.1 0.2 -0.3
v 0.1 0.3 -0.3
v 0 -0.2 -0.3
v 0 -0.1 -0.3
v 0 0.1 -0.3
v 0 0.2 -0.3
v -0.2 -0.2 -0.3
v -0.2 -0.1 -0.3
v -0.2 0.1 -0.3
v -0.2 0.2 -0.3
v -0.2 0.3 -0.3
v -0.3 -0.3 -0.3
v -0.3 -0.2 -0.3
v -0.3 -0.1 -0.3
v -0.3 0.1 -0.3
v -0.3 0.2 -0.3
v -0.3 0.3 -0.3
v -0.4 -0.2 -0.3
v -0.4 0.1 -0.3
v -0.4 0.2 -0.3
v -0.5 0.1 -0.3
v -0.5 0.2 -0.3
v 0.3 -0.1 -0.2
v 0.3 0.1 -0.2
v 0.2 -0.3 -0.2
v 0.2 -0.2 -0.2
v 0.2 -0.1 -0.2
v 0.2 0.1 -0.2
v 0.2 0.2 -0.2
v 0.2 0.3 -0.2
v 0.1 -0.3 -0.2
v 0.1 -0.2 -0.2
v 0.1 0.2 -0.2
v 0.1 0.3 -0.2
v 0 -0.4 -0.2
v 0 -0.3 -0.2
v 0 0.3 -0.2
v 0 0.4 -0.2
v -0.2 -0.4 -0.2
v -0.2 -0.3 -0.2
v -0.2 0.3 -0.2
v -0.2 0.4 -0.2
v -0.3 -0.3 -0.2
v -0.3 -0.2 -0.2
v -0.3 0.2 -0.2
v -0.3 0.3 -0.2
v -0.4 -0.3 -0.2
v -0.4 -0.2 -0.2
v -0.4 -0.1 -0.2
v -0.4 7.45058e-009 -0.2
v -0.4 0.1 -0.2
v -0.4 0.2 -0.2
v -0.4 0.3 -0.2
v -0.5 -0.2 -0.2
v -0.5 -0.1 -0.2
v -0.5 7.45058e-009 -0.2
v -0.5 0.1 -0.2
v 0.3 -0.2 -0.1
v 0.3 -0.1 -0.1
v 0.3 0.1 -0.1
v 0.3 0.2 -0.1
v 0.2 -0.2 -0.1
v 0.2 -0.1 -0.1
v 0.2 0.1 -0.1
v 0.2 0.2 -0.1
v 0.1 -0.4 -0.1
v 0.1 -0.3 -0.1
v 0.1 0.3 -0.1
v 0.1 0.4 -0.1
v 0 -0.4 -0.1
v 0 -0.3 -0.1
v 0 0.3 -0.1
v 0 0.4 -0.1
v -0.2 -0.4 -0.1
v -0.2 -0.3 -0.1
v -0.2 0.3 -0.1
v -0.2 0.4 -0.1
v -0.3 -0.4 -0.1
v -0.3 -0.3 -0.1
v -0.3 0.3 -0.1
v -0.3 0.4 -0.1
v -0.4 0.1 -0.1
v -0.4 0.2 -0.1
v -0.5 0.1 -0.1
v -0.5 0.2 -0.1
v -0.2 0.3 0.2
v -0.2 0.4 0.2
v -0.3 0.3 0.2
v -0.3 0.4 0.2
v -0.4 0.1 0.2
v -0.4 0.2 0.2
v -0.5 0.1 0.2
v -0.5 0.2 0.2
v -0.3 0.3 0.3
v -0.3 0.4 0.3
v -0.4 0.3 0.3
v -0.4 0.4 0.3
v -0.3 0.3 -0.3
v -0.3 0.4 -0.3
v -0.4 0.3 -0.3
v -0.4 0.4 -0.3
v -0.2 0.3 -0.2
v -0.2 0.4 -0.2
v -0.3 0.3 -0.2
v -0.3 0.4 -0.2
v -0.4 0.1 -0.2
v -0.4 0.2 -0.2
v -0.5 0.1 -0.2
v -0.5 0.2 -0.2
v 0.3 -0.2 0.1
v 0.3 -0.1 0.1
v 0.3 0.1 0.1
v 0.3 0.2 0.1
v 0.2 -0.2 0.1
v 0.2 -0.1 0.1
v 0.2 0.1 0.1
v 0.2 0.2 0.1
v 0.1 -0.4 0.1
v 0.1 -0.3 0.1
v 0.1 0.3 0.1
v 0.1 0.4 0.1
v 0 -0.4 0.1
v 0 -0.3 0.1
v 0 0.3 0.1
v 0 0.4 0.1
v -0.2 -0.4 0.1
v -0.2 -0.3 0.1
v -0.2 0.3 0.1
v -0.2 0.4 0.1
v -0.3 -0.4 0.1
v -0.3 -0.3 0.1
v -0.3 0.3 0.1
v -0.3 0.4 0.1
v -0.4 0.1 0.1
v -0.4 0.2 0.1
v -0.5 0.1 0.1
v -0.5 0.2 0.1
v 0.3 -0.1 0.2
v 0.3 0.1 0.2
v 0.2 -0.3 0.2
v 0.2 -0.2 0.2
v 0.2 -0.1 0.2
v 0.2 0.1 0.2
v 0.2 0.2 0.2
v 0.2 0.3 0.2
v 0.1 -0.3 0.2
v 0.1 -0.2 0.2
v 0.1 0.2 0.2
v 0.1 0.3 0.2
v 0 -0.4 0.2
v 0 -0.3 0.2
v 0 0.3 0.2
v 0 0.4 0.2
v -0.2 -0.4 0.2
v -0.2 -0.3 0.2
v -0.2 0.3 0.2
v -0.2 0.4 0.2
v -0.3 -0.3 0.2
v -0.3 -0.2 0.2
v -0.3 0.2 0.2
v -0.3 0.3 0.2
v -0.4 -0.3 0.2
v -0.4 -0.2 0.2
v -0.4 -0.1 0.2
v -0.4 7.45058e-009 0.2
v -0.4 0.1 0.2
v -0.4 0.2 0.2
v -0.4 0.3 0.2
v -0.5 -0.2 0.2
v -0.5 -0.1 0.2
v -0.5 7.45058e-009 0.2
v -0.5 0.1 0.2
v 0.2 -0.2 0.3
v 0.2 0.2 0.3
v 0.1 -0.3 0.3
v 0.1 -0.2 0.3
v 0.1 -0.1 0.3
v 0.1 0.1 0.3
v 0.1 0.2 0.3
v 0.1 0.3 0.3
v 0 -0.2 0.3
v 0 -0.1 0.3
v 0 0.1 0.3
v 0 0.2 0.3
v -0.2 -0.2 0.3
v -0.2 -0.1 0.3
v -0.2 0.1 0.3
v -0.2 0.2 0.3
v -0.2 0.3 0.3
v -0.3 -0.3 0.3
v -0.3 -0.2 0.3
v -0.3 -0.1 0.3
v -0.3 0.1 0.3
v -0.3 0.2 0.3
v -0.3 0.3 0.3
v -0.4 -0.2 0.3
v -0.4 0.1 0.3
v -0.4 0.2 0.3
v -0.5 0.1 0.3
v -0.5 0.2 0.3
v 0.1 -0.1 0.4
v 0.1 0.1 0.4
v 0 -0.2 0.4
v 0 -0.1 0.4
v 0 0.1 0.4
v 0 0.2 0.4
v -0.2 -0.2 0.4
v -0.2 -0.1 0.4
v -0.2 0.1 0.4
v -0.2 0.2 0.4
v -0.2 0.3 0.4
v -0.2 0.4 0.4
v -0.3 -0.1 0.4
v -0.3 0.1 0.4
v -0.3 0.3 0.4
v -0.3 0.4 0.4
v -0.4 0.3 0.4
v -0.4 0.4 0.4
v 0 -0.4 -0.2
v -0.2 -0.4 -0.2
v 0.1 -0.4 -0.1
v 0 -0.4 -0.1
v -0.2 -0.4 -0.1
v -0.3 -0.4 -0.1
v -0.1 -0.4 7.45058e-009
v -0.2 -0.4 7.45058e-009
v 0.1 -0.4 0.1
v 0 -0.4 0.1
v -0.1 -0.4 0.1
v -0.2 -0.4 0.1
v -0.3 -0.4 0.1
v 0 -0.4 0.2
v -0.2 -0.4 0.2
v 0.1 -0.3 -0.3
v -0.3 -0.3 -0.3
v 0.2 -0.3 -0.2
v 0.1 -0.3 -0.2
v 0 -0.3 -0.2
v -0.2 -0.3 -0.2
v -0.3 -0.3 -0.2
v -0.4 -0.3 -0.2
v 0.1 -0.3 -0.1
v 0 -0.3 -0.1
v -0.2 -0.3 -0.1
v -0.3 -0.3 -0.1
v 0.1 -0.3 0.1
v 0 -0.3 0.1
v -0.2 -0.3 0.1
v -0.3 -0.3 0.1
v 0.2 -0.3 0.2
v 0.1 -0.3 0.2
v 0 -0.3 0.2
v -0.2 -0.3 0.2
v -0.3 -0.3 0.2
v -0.4 -0.3 0.2
v 0.1 -0.3 0.3
v -0.3 -0.3 0.3
v 0 -0.2 -0.4
v -0.2 -0.2 -0.4
v 0.2 -0.2 -0.3
v 0.1 -0.2 -0.3
v 0 -0.2 -0.3
v -0.2 -0.2 -0.3
v -0.3 -0.2 -0.3
v -0.4 -0.2 -0.3
v 0.2 -0.2 -0.2
v 0.1 -0.2 -0.2
v -0.3 -0.2 -0.2
v -0.4 -0.2 -0.2
v -0.5 -0.2 -0.2
v 0.3 -0.2 -0.1
v 0.2 -0.2 -0.1
v -0.4 -0.2 -0.1
v -0.5 -0.2 -0.1
v 0.3 -0.2 0.1
v 0.2 -0.2 0.1
v -0.4 -0.2 0.1
v -0.5 -0.2 0.1
v 0.2 -0.2 0.2
v 0.1 -0.2 0.2
v -0.3 -0.2 0.2
v -0.4 -0.2 0.2
v -0.5 -0.2 0.2
v 0.2 -0.2 0.3
v 0.1 -0.2 0.3
v 0 -0.2 0.3
v -0.2 -0.2 0.3
v -0.3 -0.2 0.3
v -0.4 -0.2 0.3
v 0 -0.2 0.4
v -0.2 -0.2 0.4
v 0.1 -0.1 -0.4
v 0 -0.1 -0.4
v -0.2 -0.1 -0.4
v -0.3 -0.1 -0.4
v 0.1 -0.1 -0.3
v 0 -0.1 -0.3
v -0.2 -0.1 -0.3
v -0.3 -0.1 -0.3
v 0.3 -0.1 -0.2
v 0.2 -0.1 -0.2
v 0.3 -0.1 -0.1
v 0.2 -0.1 -0.1
v 0.3 -0.1 0.1
v 0.2 -0.1 0.1
v 0.3 -0.1 0.2
v 0.2 -0.1 0.2
v 0.1 -0.1 0.3
v 0 -0.1 0.3
v -0.2 -0.1 0.3
v -0.3 -0.1 0.3
v 0.1 -0.1 0.4
v 0 -0.1 0.4
v -0.2 -0.1 0.4
v -0.3 -0.1 0.4
v -0.4 0.1 -0.3
v -0.5 0.1 -0.3
v -0.4 0.1 -0.2
v -0.5 0.1 -0.2
v -0.4 0.1 0.2
v -0.5 0.1 0.2
v -0.4 0.1 0.3
v -0.5 0.1 0.3
v -0.2 0.3 -0.4
v -0.3 0.3 -0.4
v -0.4 0.3 -0.4
v -0.2 0.3 -0.3
v -0.3 0.3 -0.3
v -0.4 0.3 -0.3
v -0.2 0.3 0.3
v -0.3 0.3 0.3
v -0.4 0.3 0.3
v -0.2 0.3 0.4
v -0.3 0.3 0.4
v -0.4 0.3 0.4
v 0.1 0.1 -0.4
v 0 0.1 -0.4
v -0.2 0.1 -0.4
v -0.3 0.1 -0.4
v 0.1 0.1 -0.3
v 0 0.1 -0.3
v -0.2 0.1 -0.3
v -0.3 0.1 -0.3
v 0.3 0.1 -0.2
v 0.2 0.1 -0.2
v -0.4 0.1 -0.2
v -0.5 0.1 -0.2
v 0.3 0.1 -0.1
v 0.2 0.1 -0.1
v -0.4 0.1 -0.1
v -0.5 0.1 -0.1
v 0.3 0.1 0.1
v 0.2 0.1 0.1
v -0.4 0.1 0.1
v -0.5 0.1 0.1
v 0.3 0.1 0.2
v 0.2 0.1 0.2
v -0.4 0.1 0.2
v -0.5 0.1 0.2
v 0.1 0.1 0.3
v 0 0.1 0.3
v -0.2 0.1 0.3
v -0.3 0.1 0.3
v 0.1 0.1 0.4
v 0 0.1 0.4
v -0.2 0.1 0.4
v -0.3 0.1 0.4
v 0 0.2 -0.4
v -0.2 0.2 -0.4
v 0.2 0.2 -0.3
v 0.1 0.2 -0.3
v 0 0.2 -0.3
v -0.2 0.2 -0.3
v -0.3 0.2 -0.3
v -0.4 0.2 -0.3
v -0.5 0.2 -0.3
v 0.2 0.2 -0.2
v 0.1 0.2 -0.2
v -0.3 0.2 -0.2
v -0.4 0.2 -0.2
v -0.5 0.2 -0.2
v 0.3 0.2 -0.1
v 0.2 0.2 -0.1
v -0.4 0.2 -0.1
v -0.5 0.2 -0.1
v 0.3 0.2 0.1
v 0.2 0.2 0.1
v -0.4 0.2 0.1
v -0.5 0.2 0.1
v 0.2 0.2 0.2
v 0.1 0.2 0.2
v -0.3 0.2 0.2
v -0.4 0.2 0.2
v -0.5 0.2 0.2
v 0.2 0.2 0.3
v 0.1 0.2 0.3
v 0 0.2 0.3
v -0.2 0.2 0.3
v -0.3 0.2 0.3
v -0.4 0.2 0.3
v -0.5 0.2 0.3
v 0 0.2 0.4
v -0.2 0.2 0.4
v 0.1 0.3 -0.3
v -0.2 0.3 -0.3
v 0.2 0.3 -0.2
v 0.1 0.3 -0.2
v 0 0.3 -0.2
v -0.2 0.3 -0.2
v -0.3 0.3 -0.2
v -0.4 0.3 -0.2
v 0.1 0.3 -0.1
v 0 0.3 -0.1
v -0.2 0.3 -0.1
v -0.3 0.3 -0.1
v 0.1 0.3 0.1
v 0 0.3 0.1
v -0.2 0.3 0.1
v -0.3 0.3 0.1
v 0.2 0.3 0.2
v 0.1 0.3 0.2
v 0 0.3 0.2
v -0.2 0.3 0.2
v -0.3 0.3 0.2
v -0.4 0.3 0.2
v 0.1 0.3 0.3
v -0.2 0.3 0.3
v -0.2 0.4 -0.4
v -0.3 0.4 -0.4
v -0.4 0.4 -0.4
v -0.3 0.4 -0.3
v -0.4 0.4 -0.3
v 0 0.4 -0.2
v -0.2 0.4 -0.2
v -0.3 0.4 -0.2
v 0.1 0.4 -0.1
v 0 0.4 -0.1
v -0.2 0.4 -0.1
v -0.3 0.4 -0.1
v 0.1 0.4 0.1
v 0 0.4 0.1
v -0.2 0.4 0.1
v -0.3 0.4 0.1
v 0 0.4 0.2
v -0.2 0.4 0.2
v -0.3 0.4 0.2
v -0.3 0.4 0.3
v -0.4 0.4 0.3
v -0.2 0.4 0.4
v -0.3 0.4 0.4
v -0.4 0.4 0.4

# faces
f 4/7/1 2/7/1 1/7/1
f 5/7/1 2/7/1 4/7/1
f 7/7/1 4/7/1 3/7/1
f 7/7/1 6/7/1 5/7/1
f 7/7/1 5/7/1 4/7/1
f 8/7/1 6/7/1 7/7/1
f 9/7/1 6/7/1 8/7/1
f 10/7/1 6/7/1 9/7/1
f 11/7/1 9/7/1 8/7/1
f 12/7/1 9/7/1 11/7/1
f 16/7/1 14/7/1 13/7/1
f 17/7/1 14/7/1 16/7/1
f 18/7/1 14/7/1 17/7/1
f 19/7/1 14/7/1 18/7/1
f 21/7/1 16/7/1 15/7/1
f 21/7/1 17/7/1 16/7/1
f 22/7/1 17/7/1 21/7/1
f 23/7/1 20/7/1 19/7/1
f 23/7/1 19/7/1 18/7/1
f 24/7/1 20/7/1 23/7/1
f 25/7/1 21/7/1 15/7/1
f 28/7/1 20/7/1 24/7/1
f 29/7/1 26/7/1 25/7/1
f 29/7/1 25/7/1 15/7/1
f 30/7/1 26/7/1 29/7/1
f 31/7/1 26/7/1 30/7/1
f 32/7/1 28/7/1 27/7/1
f 33/7/1 20/7/1 28/7/1
f 33/7/1 28/7/1 32/7/1
f 34/7/1 20/7/1 33/7/1
f 35/7/1 31/7/1 30/7/1
f 35/7/1 32/7/1 31/7/1
f 35/7/1 33/7/1 32/7/1
f 36/7/1 33/7/1 35/7/1
f 41/7/1 38/7/1 37/7/1
f 42/7/1 38/7/1 41/7/1
f 45/7/1 40/7/1 39/7/1
f 46/7/1 40/7/1 45/7/1
f 47/7/1 44/7/1 43/7/1
f 48/7/1 44/7/1 47/7/1
f 53/7/1 50/7/1 49/7/1
f 54/7/1 50/7/1 53/7/1
f 55/7/1 52/7/1 51/7/1
f 56/7/1 52/7/1 55/7/1
f 61/7/1 58/7/1 57/7/1
f 62/7/1 58/7/1 61/7/1
f 65/7/1 60/7/1 59/7/1
f 66/7/1 60/7/1 65/7/1
f 67/7/1 64/7/1 63/7/1
f 68/7/1 64/7/1 67/7/1
f 73/7/1 70/7/1 69/7/1
f 74/7/1 70/7/1 73/7/1
f 75/7/1 72/7/1 71/7/1
f 76/7/1 72/7/1 75/7/1
f 81/7/1 78/7/1 77/7/1
f 82/7/1 78/7/1 81/7/1
f 83/7/1 80/7/1 79/7/1
f 84/7/1 80/7/1 83/7/1
f 89/7/1 86/7/1 85/7/1
f 90/7/1 86/7/1 89/7/1
f 91/7/1 88/7/1 87/7/1
f 92/7/1 88/7/1 91/7/1
f 97/7/1 94/7/1 93/7/1
f 98/7/1 94/7/1 97/7/1
f 99/7/1 96/7/1 95/7/1
f 100/7/1 96/7/1 99/7/1
f 107/2/1 102/2/1 101/2/1
f 107/2/1 103/2/1 102/2/1
f 108/2/1 103/2/1 107/2/1
f 109/2/1 106/2/1 105/2/1
f 109/2/1 105/2/1 104/2/1
f 110/2/1 106/2/1 109/2/1
f 111/7/2 112/7/2 115/7/2
f 115/7/2 112/7/2 116/7/2
f 113/7/2 114/7/2 117/7/2
f 117/7/2 114/7/2 118/7/2
f 119/7/2 120/7/2 123/7/2
f 123/7/2 120/7/2 124/7/2
f 121/7/2 122/7/2 125/7/2
f 125/7/2 122/7/2 126/7/2
f 127/7/2 128/7/2 131/7/2
f 131/7/2 128/7/2 132/7/2
f 129/7/2 130/7/2 133/7/2
f 133/7/2 130/7/2 134/7/2
f 135/7/2 136/7/2 139/7/2
f 139/7/2 136/7/2 140/7/2
f 137/7/2 138/7/2 141/7/2
f 141/7/2 138/7/2 142/7/2
f 143/7/2 144/7/2 147/7/2
f 147/7/2 144/7/2 148/7/2
f 145/7/2 146/7/2 151/7/2
f 151/7/2 146/7/2 152/7/2
f 149/7/2 150/7/2 153/7/2
f 153/7/2 150/7/2 154/7/2
f 155/7/2 156/7/2 159/7/2
f 159/7/2 156/7/2 160/7/2
f 157/7/2 158/7/2 161/7/2
f 161/7/2 158/7/2 162/7/2
f 163/1/2 164/1/2 167/1/2
f 167/1/2 164/1/2 168/1/2
f 165/1/2 166/1/2 171/1/2
f 171/1/2 166/1/2 172/1/2
f 167/2/2 168/2/2 173/2/2
f 173/2/2 168/2/2 174/2/2
f 169/7/2 170/7/2 175/7/2
f 175/7/2 170/7/2 176/7/2
f 171/2/2 172/2/2 177/2/2
f 177/2/2 172/2/2 178/2/2
f 179/7/2 180/7/2 182/7/2
f 182/7/2 180/7/2 183/7/2
f 183/7/2 180/7/2 184/7/2
f 184/7/2 180/7/2 185/7/2
f 181/7/2 182/7/2 187/7/2
f 185/7/2 186/7/2 188/7/2
f 181/7/2 187/7/2 189/7/2
f 188/7/2 186/7/2 190/7/2
f 181/7/2 189/7/2 191/7/2
f 191/7/2 189/7/2 192/7/2
f 190/7/2 186/7/2 195/7/2
f 195/7/2 186/7/2 196/7/2
f 192/7/2 193/7/2 197/7/2
f 197/7/2 193/7/2 198/7/2
f 194/7/2 195/7/2 199/7/2
f 199/7/2 195/7/2 200/7/2
f 197/7/2 198/7/2 203/7/2
f 198/7/2 199/7/2 203/7/2
f 199/7/2 200/7/2 203/7/2
f 203/7/2 200/7/2 204/7/2
f 201/3/2 202/3/2 207/3/2
f 207/3/2 202/3/2 208/3/2
f 205/3/2 206/3/2 209/3/2
f 209/3/2 206/3/2 210/3/2
f 211/4/2 212/4/2 215/4/2
f 212/7/2 213/7/2 216/7/2
f 215/4/2 212/4/2 216/4/2
f 213/4/2 214/4/2 217/4/2
f 216/7/2 213/7/2 217/7/2
f 217/4/2 214/4/2 218/4/2
f 215/7/2 216/7/2 219/7/2
f 216/7/2 217/7/2 219/7/2
f 217/7/2 218/7/2 219/7/2
f 219/7/2 218/7/2 220/7/2
f 220/7/2 218/7/2 221/7/2
f 221/7/2 218/7/2 222/7/2
f 219/6/2 220/6/2 224/6/2
f 220/7/2 221/7/2 225/7/2
f 224/6/2 220/6/2 225/6/2
f 221/6/2 222/6/2 226/6/2
f 225/7/2 221/7/2 226/7/2
f 226/6/2 222/6/2 227/6/2
f 223/6/2 224/6/2 229/6/2
f 229/6/2 224/6/2 230/6/2
f 225/7/2 226/7/2 231/7/2
f 231/7/2 226/7/2 232/7/2
f 227/6/2 228/6/2 233/6/2
f 233/6/2 228/6/2 234/6/2
f 238/7/3 236/7/3 235/7/3
f 239/7/3 236/7/3 238/7/3
f 241/7/3 238/7/3 237/7/3
f 241/7/3 240/7/3 239/7/3
f 241/7/3 239/7/3 238/7/3
f 242/7/3 240/7/3 241/7/3
f 243/7/3 240/7/3 242/7/3
f 244/7/3 240/7/3 243/7/3
f 247/7/3 243/7/3 242/7/3
f 248/7/3 243/7/3 247/7/3
f 249/2/3 246/2/3 245/2/3
f 250/2/3 246/2/3 249/2/3
f 251/3/3 250/3/3 249/3/3
f 252/3/3 250/3/3 251/3/3
f 256/7/3 254/7/3 253/7/3
f 257/7/3 254/7/3 256/7/3
f 258/7/3 254/7/3 257/7/3
f 259/7/3 254/7/3 258/7/3
f 261/7/3 256/7/3 255/7/3
f 261/7/3 257/7/3 256/7/3
f 262/7/3 257/7/3 261/7/3
f 263/7/3 260/7/3 259/7/3
f 263/7/3 259/7/3 258/7/3
f 264/7/3 260/7/3 263/7/3
f 265/7/3 261/7/3 255/7/3
f 268/7/3 260/7/3 264/7/3
f 269/7/3 260/7/3 268/7/3
f 270/7/3 266/7/3 265/7/3
f 270/7/3 265/7/3 255/7/3
f 271/7/3 266/7/3 270/7/3
f 272/7/3 266/7/3 271/7/3
f 273/7/3 268/7/3 267/7/3
f 274/1/3 269/1/3 268/1/3
f 274/7/3 268/7/3 273/7/3
f 275/1/3 269/1/3 274/1/3
f 276/7/3 273/7/3 272/7/3
f 276/7/3 272/7/3 271/7/3
f 276/7/3 274/7/3 273/7/3
f 277/7/3 274/7/3 276/7/3
f 278/7/3 274/7/3 277/7/3
f 279/6/3 278/6/3 277/6/3
f 280/6/3 278/6/3 279/6/3
f 285/7/3 282/7/3 281/7/3
f 286/7/3 282/7/3 285/7/3
f 289/7/3 284/7/3 283/7/3
f 290/7/3 284/7/3 289/7/3
f 291/7/3 288/7/3 287/7/3
f 292/7/3 288/7/3 291/7/3
f 297/7/3 294/7/3 293/7/3
f 298/7/3 294/7/3 297/7/3
f 299/7/3 296/7/3 295/7/3
f 300/7/3 296/7/3 299/7/3
f 305/7/3 302/7/3 301/7/3
f 306/7/3 302/7/3 305/7/3
f 310/7/3 304/7/3 303/7/3
f 311/7/3 304/7/3 310/7/3
f 312/4/3 307/4/3 306/4/3
f 313/7/3 308/7/3 307/7/3
f 313/4/3 307/4/3 312/4/3
f 314/6/3 309/6/3 308/6/3
f 314/7/3 308/7/3 313/7/3
f 315/6/3 309/6/3 314/6/3
f 320/7/3 317/7/3 316/7/3
f 321/7/3 317/7/3 320/7/3
f 322/7/3 319/7/3 318/7/3
f 323/7/3 319/7/3 322/7/3
f 328/7/3 325/7/3 324/7/3
f 329/7/3 325/7/3 328/7/3
f 330/7/3 327/7/3 326/7/3
f 331/7/3 327/7/3 330/7/3
f 336/7/3 333/7/3 332/7/3
f 337/7/3 333/7/3 336/7/3
f 338/7/3 335/7/3 334/7/3
f 339/7/3 335/7/3 338/7/3
f 342/7/3 341/7/3 340/7/3
f 343/7/3 341/7/3 342/7/3
f 346/2/3 345/2/3 344/2/3
f 347/2/3 345/2/3 346/2/3
f 350/6/3 349/6/3 348/6/3
f 351/6/3 349/6/3 350/6/3
f 354/3/3 353/3/3 352/3/3
f 355/3/3 353/3/3 354/3/3
f 356/3/4 357/3/4 358/3/4
f 358/3/4 357/3/4 359/3/4
f 360/2/4 361/2/4 362/2/4
f 362/2/4 361/2/4 363/2/4
f 364/6/4 365/6/4 366/6/4
f 366/6/4 365/6/4 367/6/4
f 368/7/4 369/7/4 372/7/4
f 372/7/4 369/7/4 373/7/4
f 370/7/4 371/7/4 374/7/4
f 374/7/4 371/7/4 375/7/4
f 376/7/4 377/7/4 380/7/4
f 380/7/4 377/7/4 381/7/4
f 378/7/4 379/7/4 382/7/4
f 382/7/4 379/7/4 383/7/4
f 384/7/4 385/7/4 388/7/4
f 388/7/4 385/7/4 389/7/4
f 386/7/4 387/7/4 390/7/4
f 390/7/4 387/7/4 391/7/4
f 392/7/4 393/7/4 394/7/4
f 394/7/4 393/7/4 395/7/4
f 396/7/4 397/7/4 400/7/4
f 400/7/4 397/7/4 401/7/4
f 398/7/4 399/7/4 404/7/4
f 404/7/4 399/7/4 405/7/4
f 402/7/4 403/7/4 406/7/4
f 406/7/4 403/7/4 407/7/4
f 408/7/4 409/7/4 412/7/4
f 412/7/4 409/7/4 413/7/4
f 410/7/4 411/7/4 414/7/4
f 414/7/4 411/7/4 415/7/4
f 416/7/4 417/7/4 420/7/4
f 420/7/4 417/7/4 421/7/4
f 418/7/4 419/7/4 425/7/4
f 425/7/4 419/7/4 426/7/4
f 421/4/4 422/4/4 427/4/4
f 422/7/4 423/7/4 428/7/4
f 427/4/4 422/4/4 428/4/4
f 423/6/4 424/6/4 429/6/4
f 428/7/4 423/7/4 429/7/4
f 429/6/4 424/6/4 430/6/4
f 431/7/4 432/7/4 434/7/4
f 434/7/4 432/7/4 435/7/4
f 435/7/4 432/7/4 436/7/4
f 436/7/4 432/7/4 437/7/4
f 433/7/4 434/7/4 439/7/4
f 434/7/4 435/7/4 439/7/4
f 439/7/4 435/7/4 440/7/4
f 437/7/4 438/7/4 441/7/4
f 436/7/4 437/7/4 441/7/4
f 441/7/4 438/7/4 442/7/4
f 433/7/4 439/7/4 443/7/4
f 442/7/4 438/7/4 446/7/4
f 446/7/4 438/7/4 447/7/4
f 443/7/4 444/7/4 448/7/4
f 433/7/4 443/7/4 448/7/4
f 448/7/4 444/7/4 449/7/4
f 449/7/4 444/7/4 450/7/4
f 445/7/4 446/7/4 451/7/4
f 446/1/4 447/1/4 452/1/4
f 451/7/4 446/7/4 452/7/4
f 452/1/4 447/1/4 453/1/4
f 450/7/4 451/7/4 454/7/4
f 449/7/4 450/7/4 454/7/4
f 451/7/4 452/7/4 454/7/4
f 454/7/4 452/7/4 455/7/4
f 455/7/4 452/7/4 456/7/4
f 455/6/4 456/6/4 457/6/4
f 457/6/4 456/6/4 458/6/4
f 459/7/4 460/7/4 462/7/4
f 462/7/4 460/7/4 463/7/4
f 461/7/4 462/7/4 465/7/4
f 463/7/4 464/7/4 465/7/4
f 462/7/4 463/7/4 465/7/4
f 465/7/4 464/7/4 466/7/4
f 466/7/4 464/7/4 467/7/4
f 467/7/4 464/7/4 468/7/4
f 466/7/4 467/7/4 471/7/4
f 471/7/4 467/7/4 472/7/4
f 469/2/4 470/2/4 473/2/4
f 473/2/4 470/2/4 474/2/4
f 473/3/4 474/3/4 475/3/4
f 475/3/4 474/3/4 476/3/4
f 480/7/5 478/7/5 477/7/5
f 481/7/5 478/7/5 480/7/5
f 483/7/5 480/7/5 479/7/5
f 483/7/5 482/7/5 481/7/5
f 483/7/5 481/7/5 480/7/5
f 484/7/5 482/7/5 483/7/5
f 485/7/5 483/7/5 479/7/5
f 486/7/5 483/7/5 485/7/5
f 487/5/5 484/5/5 483/5/5
f 487/7/5 483/7/5 486/7/5
f 488/7/5 482/7/5 484/7/5
f 488/5/5 484/5/5 487/5/5
f 489/7/5 482/7/5 488/7/5
f 490/7/5 487/7/5 486/7/5
f 490/7/5 488/7/5 487/7/5
f 491/7/5 488/7/5 490/7/5
f 495/7/5 493/7/5 492/7/5
f 496/7/5 493/7/5 495/7/5
f 497/7/5 493/7/5 496/7/5
f 498/7/5 493/7/5 497/7/5
f 500/7/5 495/7/5 494/7/5
f 500/7/5 496/7/5 495/7/5
f 501/7/5 496/7/5 500/7/5
f 502/7/5 499/7/5 498/7/5
f 502/7/5 498/7/5 497/7/5
f 503/7/5 499/7/5 502/7/5
f 504/7/5 500/7/5 494/7/5
f 507/7/5 499/7/5 503/7/5
f 508/7/5 505/7/5 504/7/5
f 508/7/5 504/7/5 494/7/5
f 509/7/5 505/7/5 508/7/5
f 510/7/5 505/7/5 509/7/5
f 511/7/5 507/7/5 506/7/5
f 512/7/5 499/7/5 507/7/5
f 512/7/5 507/7/5 511/7/5
f 513/7/5 499/7/5 512/7/5
f 514/7/5 510/7/5 509/7/5
f 514/7/5 511/7/5 510/7/5
f 514/7/5 512/7/5 511/7/5
f 515/7/5 512/7/5 514/7/5
f 520/7/5 517/7/5 516/7/5
f 521/7/5 517/7/5 520/7/5
f 524/7/5 519/7/5 518/7/5
f 525/7/5 519/7/5 524/7/5
f 526/7/5 523/7/5 522/7/5
f 527/7/5 523/7/5 526/7/5
f 531/4/5 528/4/5 527/4/5
f 532/4/5 528/4/5 531/4/5
f 533/7/5 530/7/5 529/7/5
f 534/7/5 530/7/5 533/7/5
f 535/7/5 532/7/5 531/7/5
f 536/7/5 532/7/5 535/7/5
f 540/4/5 536/4/5 535/4/5
f 541/4/5 536/4/5 540/4/5
f 542/7/5 538/7/5 537/7/5
f 543/7/5 538/7/5 542/7/5
f 546/7/5 540/7/5 539/7/5
f 547/7/5 540/7/5 546/7/5
f 548/7/5 545/7/5 544/7/5
f 549/7/5 545/7/5 548/7/5
f 554/7/5 551/7/5 550/7/5
f 555/7/5 551/7/5 554/7/5
f 556/7/5 553/7/5 552/7/5
f 557/7/5 553/7/5 556/7/5
f 560/7/5 559/7/5 558/7/5
f 561/7/5 559/7/5 560/7/5
f 564/7/5 563/7/5 562/7/5
f 565/7/5 563/7/5 564/7/5
f 570/7/5 567/7/5 566/7/5
f 571/7/5 567/7/5 570/7/5
f 572/7/5 569/7/5 568/7/5
f 573/7/5 569/7/5 572/7/5
f 576/6/5 575/6/5 574/6/5
f 577/6/5 575/6/5 576/6/5
f 580/6/5 579/6/5 578/6/5
f 581/6/5 579/6/5 580/6/5
f 585/2/5 583/2/5 582/2/5
f 586/3/5 584/3/5 583/3/5
f 586/2/5 583/2/5 585/2/5
f 587/3/5 584/3/5 586/3/5
f 591/2/5 589/2/5 588/2/5
f 592/3/5 590/3/5 589/3/5
f 592/2/5 589/2/5 591/2/5
f 593/3/5 590/3/5 592/3/5
f 594/7/6 595/7/6 598/7/6
f 598/7/6 595/7/6 599/7/6
f 596/7/6 597/7/6 600/7/6
f 600/7/6 597/7/6 601/7/6
f 602/7/6 603/7/6 606/7/6
f 606/7/6 603/7/6 607/7/6
f 604/6/6 605/6/6 608/6/6
f 608/6/6 605/6/6 609/6/6
f 610/7/6 611/7/6 614/7/6
f 614/7/6 611/7/6 615/7/6
f 612/6/6 613/6/6 616/6/6
f 616/6/6 613/6/6 617/6/6
f 618/7/6 619/7/6 622/7/6
f 622/7/6 619/7/6 623/7/6
f 620/7/6 621/7/6 624/7/6
f 624/7/6 621/7/6 625/7/6
f 626/7/6 627/7/6 630/7/6
f 630/7/6 627/7/6 631/7/6
f 628/7/6 629/7/6 635/7/6
f 635/7/6 629/7/6 636/7/6
f 632/7/6 633/7/6 637/7/6
f 633/6/6 634/6/6 638/6/6
f 637/7/6 633/7/6 638/7/6
f 638/6/6 634/6/6 639/6/6
f 640/7/6 641/7/6 644/7/6
f 644/7/6 641/7/6 645/7/6
f 642/7/6 643/7/6 646/7/6
f 646/7/6 643/7/6 647/7/6
f 648/7/6 649/7/6 653/7/6
f 653/7/6 649/7/6 654/7/6
f 650/7/6 651/7/6 657/7/6
f 651/6/6 652/6/6 658/6/6
f 657/7/6 651/7/6 658/7/6
f 658/6/6 652/6/6 659/6/6
f 655/7/6 656/7/6 660/7/6
f 660/7/6 656/7/6 661/7/6
f 662/7/6 663/7/6 665/7/6
f 665/7/6 663/7/6 666/7/6
f 666/7/6 663/7/6 667/7/6
f 664/7/6 665/7/6 670/7/6
f 665/7/6 666/7/6 670/7/6
f 670/7/6 666/7/6 671/7/6
f 668/7/6 669/7/6 672/7/6
f 667/7/6 668/7/6 672/7/6
f 672/7/6 669/7/6 673/7/6
f 664/7/6 670/7/6 674/7/6
f 673/7/6 669/7/6 677/7/6
f 674/7/6 675/7/6 678/7/6
f 664/7/6 674/7/6 678/7/6
f 678/7/6 675/7/6 679/7/6
f 679/7/6 675/7/6 680/7/6
f 676/7/6 677/7/6 681/7/6
f 677/7/6 669/7/6 682/7/6
f 681/7/6 677/7/6 682/7/6
f 682/7/6 669/7/6 683/7/6
f 679/7/6 680/7/6 684/7/6
f 680/7/6 681/7/6 684/7/6
f 684/7/6 681/7/6 685/7/6
f 686/2/6 687/2/6 689/2/6
f 687/3/6 688/3/6 689/3/6
f 689/3/6 688/3/6 690/3/6
f 686/2/6 689/2/6 692/2/6
f 692/2/6 689/2/6 693/2/6
f 691/7/6 692/7/6 695/7/6
f 695/7/6 692/7/6 696/7/6
f 694/7/6 695/7/6 698/7/6
f 696/7/6 697/7/6 698/7/6
f 695/7/6 696/7/6 698/7/6
f 698/7/6 697/7/6 699/7/6
f 699/7/6 697/7/6 700/7/6
f 700/7/6 697/7/6 701/7/6
f 699/7/6 700/7/6 702/7/6
f 702/7/6 700/7/6 703/7/6
f 703/2/6 704/2/6 705/2/6
f 703/2/6 705/2/6 707/2/6
f 705/3/6 706/3/6 708/3/6
f 707/2/6 705/2/6 708/2/6
f 708/3/6 706/3/6 709/3/6
